
<svg width="1600" height="900" xmlns="http://www.w3.org/2000/svg">
  <defs>
    <linearGradient id="g" x1="0" y1="0" x2="0" y2="1">
      <stop offset="0%" stop-color="#0b84ff" stop-opacity="0.35"/>
      <stop offset="100%" stop-color="#111111" stop-opacity="0.88"/>
    </linearGradient>
    <pattern id="p" width="120" height="160" patternUnits="userSpaceOnUse">
      <rect width="120" height="160" fill="#161a22"/>
      <rect x="6" y="40" width="30" height="110" fill="#1a1f2a"/>
      <rect x="42" y="20" width="30" height="130" fill="#202635"/>
      <rect x="78" y="55" width="30" height="95" fill="#232b3e"/>
      <g fill="#2d3748">
        <rect x="10" y="50" width="6" height="6"/><rect x="22" y="50" width="6" height="6"/>
        <rect x="10" y="64" width="6" height="6"/><rect x="22" y="64" width="6" height="6"/>
        <rect x="46" y="30" width="6" height="6"/><rect x="58" y="30" width="6" height="6"/>
        <rect x="46" y="44" width="6" height="6"/><rect x="58" y="44" width="6" height="6"/>
        <rect x="82" y="65" width="6" height="6"/><rect x="94" y="65" width="6" height="6"/>
        <rect x="82" y="79" width="6" height="6"/><rect x="94" y="79" width="6" height="6"/>
      </g>
    </pattern>
  </defs>
  <rect width="1600" height="900" fill="url(#p)"/>
  <rect width="1600" height="900" fill="url(#g)"/>
</svg>
