<svg xmlns="http://www.w3.org/2000/svg" viewBox="0 0 1600 600" width="1600" height="600">
  <rect width="1600" height="600" fill="none"/>
  <g fill="#121722">
    <rect x="0" y="450" width="1600" height="150"/>
  </g>
  <g fill="#0f141d">
    <rect x="80" y="320" width="90" height="130"/>
    <rect x="170" y="340" width="60" height="110"/>
    <rect x="260" y="290" width="120" height="160"/>
    <rect x="410" y="330" width="90" height="120"/>
    <rect x="520" y="260" width="150" height="190"/>
    <rect x="710" y="300" width="110" height="150"/>
    <rect x="850" y="250" width="160" height="200"/>
    <rect x="1030" y="310" width="80" height="140"/>
    <rect x="1140" y="280" width="120" height="170"/>
    <rect x="1290" y="330" width="90" height="120"/>
    <rect x="1400" y="260" width="140" height="190"/>
  </g>
  <g fill="#17202b" opacity="0.8">
    <rect x="95" y="370" width="12" height="20"/><rect x="120" y="370" width="12" height="20"/><rect x="145" y="370" width="12" height="20"/>
    <rect x="545" y="300" width="14" height="22"/><rect x="575" y="300" width="14" height="22"/><rect x="605" y="300" width="14" height="22"/>
    <rect x="880" y="290" width="16" height="24"/><rect x="915" y="290" width="16" height="24"/><rect x="950" y="290" width="16" height="24"/>
  </g>
</svg>